<svg width="16" height="16" viewBox="0 0 16 16" fill="none" xmlns="http://www.w3.org/2000/svg">
<path fill-rule="evenodd" clip-rule="evenodd" d="M10.3617 8.80005H14.3471C15.2275 8.80005 15.9412 9.51639 15.9412 10.4V14.4C15.9412 15.2837 15.2275 16 14.3471 16H10.3617C9.4813 16 8.76758 15.2837 8.76758 14.4V10.4C8.76758 9.51639 9.4813 8.80005 10.3617 8.80005ZM12.9629 13.9746L12.3549 15.5555L11.7469 13.9746C11.648 13.7175 11.5986 13.589 11.5217 13.4809C11.4536 13.385 11.3698 13.3013 11.274 13.2332C11.1659 13.1563 11.0374 13.1068 10.7803 13.008L9.19941 12.3999L10.7803 11.7919L10.7803 11.7919C11.0374 11.693 11.1659 11.6436 11.274 11.5667C11.3698 11.4986 11.4536 11.4149 11.5217 11.319C11.5986 11.2109 11.648 11.0824 11.7469 10.8253L11.7469 10.8253L12.3549 9.24443L12.9629 10.8253C13.0618 11.0824 13.1113 11.2109 13.1881 11.319C13.2563 11.4149 13.34 11.4986 13.4358 11.5667C13.544 11.6436 13.6725 11.693 13.9296 11.7919L13.9296 11.7919L15.5104 12.3999L13.9296 13.008L13.9296 13.008C13.6725 13.1068 13.544 13.1563 13.4358 13.2332C13.34 13.3013 13.2563 13.385 13.1881 13.4809C13.1113 13.589 13.0618 13.7175 12.9629 13.9746Z" fill="#3B85DB"/>
<path d="M14.3473 0H1.59415C0.713725 0 0 0.716342 0 1.6V5.59999C0 6.48364 0.713725 7.19998 1.59415 7.19998H14.3473C15.2278 7.19998 15.9415 6.48364 15.9415 5.59999V1.6C15.9415 0.716342 15.2278 0 14.3473 0Z" fill="#F9A619"/>
<path d="M3.58608 15.9999C5.56662 15.9999 7.17215 14.3884 7.17215 12.4006C7.17215 10.4128 5.56662 8.80139 3.58608 8.80139C1.60554 8.80139 0 10.4128 0 12.4006C0 14.3884 1.60554 15.9999 3.58608 15.9999Z" fill="#EB3669"/>
</svg>
